<svg xmlns="http://www.w3.org/2000/svg" width="49.998" height="50.128" viewBox="0 0 49.998 50.128">
  <g id="noun_Search_2079258" transform="translate(-4.496 -4.508)">
    <g id="Group_258" data-name="Group 258" transform="translate(4.496 4.508)">
      <path id="Path_57" data-name="Path 57" d="M19.07,38.14A19.07,19.07,0,1,1,38.14,19.07,19.092,19.092,0,0,1,19.07,38.14Zm0-36.445A17.375,17.375,0,1,0,36.445,19.07,17.394,17.394,0,0,0,19.07,1.7Z" fill="#fc8c00"/>
      <g id="Group_257" data-name="Group 257" transform="translate(33.733 33.867)">
        <path id="Path_58" data-name="Path 58" d="M52.126,56.219a3.919,3.919,0,0,1-2.784-1.151l-8.39-8.39a3.938,3.938,0,0,1,5.569-5.568l8.39,8.39a3.935,3.935,0,0,1-2.785,6.719ZM43.735,41.651a2.241,2.241,0,0,0-1.586,3.827l8.39,8.39A2.243,2.243,0,1,0,53.712,50.7l-8.39-8.39A2.24,2.24,0,0,0,43.735,41.651Z" transform="translate(-39.8 -39.958)" fill="#fc8c00"/>
      </g>
      <rect id="Rectangle_638" data-name="Rectangle 638" width="1.695" height="5.051" transform="translate(31.379 32.576) rotate(-45)" fill="#fc8c00"/>
      <path id="Path_59" data-name="Path 59" d="M19.832,34.665A14.832,14.832,0,1,1,34.665,19.832,14.85,14.85,0,0,1,19.832,34.665Zm0-27.97A13.137,13.137,0,1,0,32.97,19.832,13.152,13.152,0,0,0,19.832,6.7Z" transform="translate(-0.762 -0.762)" fill="#fc8c00"/>
    </g>
  </g>
</svg>
