<svg xmlns="http://www.w3.org/2000/svg" width="50.21" height="50.2" viewBox="0 0 50.21 50.2">
  <g id="noun_doors_86497" transform="translate(-370.782 -148.778)">
    <g id="Group_255" data-name="Group 255" transform="translate(370.882 148.878)">
      <path id="Path_38" data-name="Path 38" d="M61.7,12.3H12.964a.714.714,0,0,0-.664.664V61.636a.665.665,0,0,0,.664.664H61.636a.665.665,0,0,0,.664-.664V12.964A.61.61,0,0,0,61.7,12.3ZM36.669,61.038H13.628V13.628H36.669Zm24.369,0H38V13.628H60.972v47.41Z" transform="translate(-12.3 -12.3)" fill="#fc8c00" stroke="#fc8c00" stroke-width="0.2"/>
      <g id="Path_39" data-name="Path 39" transform="translate(-21.653 -24.748)" fill="#fc8c00">
        <path d="M 42.13315582275391 53.66631317138672 C 40.81424713134766 53.66631317138672 39.69999694824219 52.55206298828125 39.69999694824219 51.233154296875 C 39.69999694824219 49.91425323486328 40.81424713134766 48.80000305175781 42.13315582275391 48.80000305175781 C 42.77536392211914 48.80000305175781 43.3842658996582 49.05521392822266 43.84768676757812 49.51863479614258 C 44.31109619140625 49.9820442199707 44.56631469726562 50.59094619750977 44.56630706787109 51.233154296875 C 44.56630706787109 52.55206298828125 43.45205688476562 53.66631317138672 42.13315582275391 53.66631317138672 Z M 42.13315582275391 50.48474502563477 C 41.69680404663086 50.48474502563477 41.31403732299805 50.86751556396484 41.31403732299805 51.30386352539062 C 41.31403732299805 51.74021530151367 41.69680404663086 52.12298583984375 42.13315582275391 52.12298583984375 C 42.56950759887695 52.12298583984375 42.95227432250977 51.74021530151367 42.95227432250977 51.30386352539062 C 42.95227432250977 50.86751556396484 42.56950759887695 50.48474502563477 42.13315582275391 50.48474502563477 Z" stroke="none"/>
        <path d="M 42.13315582275391 48.90000534057617 C 40.86052703857422 48.90000534057617 39.79999542236328 49.96052551269531 39.79999542236328 51.233154296875 C 39.79999542236328 52.50579452514648 40.86052703857422 53.56631469726562 42.13315582275391 53.56631469726562 C 43.40578460693359 53.56631469726562 44.46630477905273 52.50579452514648 44.46630477905273 51.233154296875 C 44.46631622314453 49.96052551269531 43.40578460693359 48.90000534057617 42.13315582275391 48.90000534057617 M 42.13315582275391 52.22298431396484 C 41.63823699951172 52.22298431396484 41.21403503417969 51.79876327514648 41.21403503417969 51.30386352539062 C 41.21403503417969 50.80894470214844 41.63823699951172 50.38474273681641 42.13315582275391 50.38474273681641 C 42.62806701660156 50.38474273681641 43.05227661132812 50.80894470214844 43.05227661132812 51.30386352539062 C 43.05227661132812 51.79876327514648 42.62806701660156 52.22298431396484 42.13315582275391 52.22298431396484 M 42.13315582275391 48.70000457763672 C 42.80207443237305 48.70000457763672 43.43608474731445 48.96562576293945 43.91839599609375 49.44792556762695 C 44.40069580078125 49.93022537231445 44.66631698608398 50.56423568725586 44.66630554199219 51.233154296875 C 44.66630554199219 51.90208435058594 44.40068435668945 52.53609466552734 43.91838455200195 53.01839447021484 C 43.43608474731445 53.50069427490234 42.80207443237305 53.76631546020508 42.13315582275391 53.76631546020508 C 41.46423721313477 53.76631546020508 40.83022689819336 53.50069427490234 40.34791564941406 53.01839447021484 C 39.86561584472656 52.53609466552734 39.59999465942383 51.90208435058594 39.59999465942383 51.233154296875 C 39.59999465942383 50.56423568725586 39.86561584472656 49.93022537231445 40.34791564941406 49.44792556762695 C 40.83022689819336 48.96562576293945 41.46423721313477 48.70000457763672 42.13315582275391 48.70000457763672 Z M 42.13315582275391 52.02298355102539 C 42.5162353515625 52.02298355102539 42.85227584838867 51.68694305419922 42.85227584838867 51.30386352539062 C 42.85227584838867 50.92078399658203 42.5162353515625 50.58474349975586 42.13315582275391 50.58474349975586 C 41.75007629394531 50.58474349975586 41.41403579711914 50.92078399658203 41.41403579711914 51.30386352539062 C 41.41403579711914 51.68694305419922 41.75007629394531 52.02298355102539 42.13315582275391 52.02298355102539 Z" stroke="none" fill="#fc8c00"/>
      </g>
      <g id="Path_40" data-name="Path 40" transform="translate(-26.347 -24.816)" fill="#fc8c00">
        <path d="M 55.93315505981445 53.86631011962891 C 54.6142578125 53.86631011962891 53.50001525878906 52.75206756591797 53.50001525878906 51.43317031860352 C 53.50001525878906 50.1142578125 54.6142578125 49 55.93315505981445 49 C 57.25206756591797 49 58.36631774902344 50.1142578125 58.36631774902344 51.43317031860352 C 58.36631774902344 52.75206756591797 57.25206756591797 53.86631011962891 55.93315505981445 53.86631011962891 Z M 55.93315505981445 50.54332733154297 C 55.49680709838867 50.54332733154297 55.11404800415039 50.92609786987305 55.11404800415039 51.36245727539062 C 55.11404800415039 51.79880905151367 55.49680709838867 52.18157958984375 55.93315505981445 52.18157958984375 C 56.27889251708984 52.18157958984375 56.68241882324219 51.89240646362305 56.75225830078125 51.35629653930664 C 56.74868774414062 50.9224967956543 56.36746597290039 50.54332733154297 55.93315505981445 50.54332733154297 Z" stroke="none"/>
        <path d="M 55.93315505981445 49.09999847412109 C 54.66052627563477 49.09999847412109 53.60001754760742 50.16053009033203 53.60001754760742 51.43317031860352 C 53.60001754760742 52.70578765869141 54.66052627563477 53.76630783081055 55.93315505981445 53.76630783081055 C 57.20578765869141 53.76630783081055 58.26631546020508 52.70578765869141 58.26631546020508 51.43317031860352 C 58.26631546020508 50.16053009033203 57.20578765869141 49.09999847412109 55.93315505981445 49.09999847412109 M 55.93315505981445 52.28157806396484 C 55.43825531005859 52.28157806396484 55.01404571533203 51.85736846923828 55.01404571533203 51.36245727539062 C 55.01404571533203 50.86754989624023 55.43825531005859 50.44332885742188 55.93315505981445 50.44332885742188 C 56.42807769775391 50.44332885742188 56.85228729248047 50.86754989624023 56.85228729248047 51.36245727539062 C 56.78157806396484 51.92807006835938 56.35737609863281 52.28157806396484 55.93315505981445 52.28157806396484 M 55.93315505981445 48.89999771118164 C 56.60207748413086 48.89999771118164 57.23608779907227 49.16561889648438 57.7183952331543 49.64791870117188 C 58.2006950378418 50.13022994995117 58.46631622314453 50.76424026489258 58.46631622314453 51.43317031860352 C 58.46631622314453 52.10208892822266 58.2006950378418 52.73608779907227 57.7183952331543 53.21838760375977 C 57.23608779907227 53.70069885253906 56.60207748413086 53.96630859375 55.93315505981445 53.96630859375 C 55.26423645019531 53.96630859375 54.63022613525391 53.70068740844727 54.14792633056641 53.21838760375977 C 53.66562652587891 52.73608779907227 53.40001678466797 52.10208892822266 53.40001678466797 51.43317031860352 C 53.40001678466797 50.76424026489258 53.66562652587891 50.13022994995117 54.14792633056641 49.64791870117188 C 54.63022613525391 49.16561889648438 55.26423645019531 48.89999771118164 55.93315505981445 48.89999771118164 Z M 56.65217208862305 51.35028076171875 C 56.6451416015625 50.97228240966797 56.31217956542969 50.64332962036133 55.93315505981445 50.64332962036133 C 55.55007553100586 50.64332962036133 55.21404647827148 50.9793701171875 55.21404647827148 51.36245727539062 C 55.21404647827148 51.74554061889648 55.55007553100586 52.08157730102539 55.93315505981445 52.08157730102539 C 56.23477935791016 52.08157730102539 56.58721160888672 51.82541275024414 56.65217208862305 51.35028076171875 Z" stroke="none" fill="#fc8c00"/>
      </g>
    </g>
  </g>
</svg>
