<?xml version="1.0" encoding="utf-8"?>
<!-- Generator: Adobe Illustrator 22.1.0, SVG Export Plug-In . SVG Version: 6.00 Build 0)  -->
<svg version="1.1" id="Laag_1" xmlns="http://www.w3.org/2000/svg" xmlns:xlink="http://www.w3.org/1999/xlink" x="0px" y="0px"
	 viewBox="0 0 154 174" style="enable-background:new 0 0 154 174;" xml:space="preserve">
<style type="text/css">
	.st0{fill:#00204A;}
</style>
<g id="Mobile" transform="translate(-221.000000, 0.000000)">
	<g id="icon-_x2F_-hamburger" transform="translate(321.000000, 58.000000)">
		<g id="Group-3">
			<path id="Path" class="st0" d="M-82.8-5.7H36.8c4.7,0,8.5-3.9,8.5-8.7s-3.8-8.7-8.5-8.7H-82.8c-4.7,0-8.5,3.9-8.5,8.7
				S-87.5-5.7-82.8-5.7z"/>
			<path id="Path_1_" class="st0" d="M-15.5,20.3h-67.3c-4.7,0-8.5,3.9-8.5,8.7s3.8,8.7,8.5,8.7h67.3c4.7,0,8.5-3.9,8.5-8.7
				S-10.8,20.3-15.5,20.3z"/>
			<path id="Path_2_" class="st0" d="M36.8,63.7H-82.8c-4.7,0-8.5,3.9-8.5,8.7c0,4.8,3.8,8.7,8.5,8.7H36.8c4.7,0,8.5-3.9,8.5-8.7
				C45.4,67.6,41.5,63.7,36.8,63.7z"/>
		</g>
	</g>
</g>
</svg>
