<svg xmlns="http://www.w3.org/2000/svg" viewBox="0 0 91.648 33.847">
  <defs>
    <style>
      .cls-1 {
        fill: #3d3c3d;
      }

      .cls-2 {
        fill: #fff;
      }

      .cls-3 {
        fill: #ef7d01;
      }
    </style>
  </defs>
  <g id="inbraaksafe-logo-inbraakbeveiliging" transform="translate(-37.33 -74.59)">
    <path id="Path_3" data-name="Path 3" class="cls-1" d="M37.33,108.137H63.117V83.066L50.224,74.59,37.33,83.066Z" transform="translate(0)"/>
    <path id="Path_4" data-name="Path 4" class="cls-2" d="M69.34,209.968a1.5,1.5,0,0,1-.022-1.733c1.28-1.845,4.681-5.995,9.354-5.995,4.39,0,7.777,3.378,9.283,5.2a2.067,2.067,0,0,1,.187,2.38c-1.245,2.076-4.233,6.011-8.99,6.011C74.143,215.829,70.656,211.786,69.34,209.968Z" transform="translate(-28.449 -114.472)"/>
    <g id="Group_3" data-name="Group 3" transform="translate(68.981 76.351)">
      <path id="Path_5" data-name="Path 5" class="cls-3" d="M346.877,93.072v8.552h1.24v1.422h-4.2v-1.422h1.233V93.072H343.92V91.65h4.2v1.422Z" transform="translate(-343.92 -91.65)"/>
      <path id="Path_6" data-name="Path 6" d="M400.984,126.728v3.955h1.331v1.392h-2.9v-5.249a2.018,2.018,0,0,0-.216-1.074.784.784,0,0,0-.707-.325,3.954,3.954,0,0,0-2.344,1.028v4.227h1.369v1.392h-4.31v-1.392h1.4v-5.157h-1.4v-1.4h2.941v.96a4.739,4.739,0,0,1,2.745-1.066,1.869,1.869,0,0,1,1.576.658A3.341,3.341,0,0,1,400.984,126.728Z" transform="translate(-388.122 -120.678)"/>
      <path id="Path_7" data-name="Path 7" d="M492.941,94.886a3.645,3.645,0,0,1,1.981.555,3.854,3.854,0,0,1,1.38,1.5,4.331,4.331,0,0,1,.5,2.042,4.444,4.444,0,0,1-.5,2.095,3.989,3.989,0,0,1-1.387,1.531,3.572,3.572,0,0,1-1.981.571,3.954,3.954,0,0,1-1.652-.355,3,3,0,0,1-1.229-.976v1.194H487.12v-1.392h1.406V93.026H487.12V91.65h2.927v4.582A3.732,3.732,0,0,1,492.941,94.886Zm-.325,6.9a2.276,2.276,0,0,0,1.323-.4,2.68,2.68,0,0,0,.9-1.051,3.114,3.114,0,0,0,.318-1.383,2.766,2.766,0,0,0-.325-1.331,2.5,2.5,0,0,0-.9-.96,2.426,2.426,0,0,0-1.3-.355,2.35,2.35,0,0,0-1.3.371,2.559,2.559,0,0,0-.9,1.006,3.058,3.058,0,0,0-.325,1.414,2.826,2.826,0,0,0,.332,1.361,2.536,2.536,0,0,0,.907.976A2.38,2.38,0,0,0,492.616,101.79Z" transform="translate(-472.337 -91.65)"/>
      <path id="Path_8" data-name="Path 8" d="M593.016,128.891v1.8h1.731v1.392H589.87v-1.392h1.6v-5.157h-1.6v-1.4h2.836v1.8a3.148,3.148,0,0,1,1.183-1.486,4,4,0,0,1,2.022-.419h.355v1.581h-.341a4.142,4.142,0,0,0-1.89.332,1.632,1.632,0,0,0-.821,1.006A7.219,7.219,0,0,0,593.016,128.891Z" transform="translate(-564.479 -120.687)"/>
      <path id="Path_9" data-name="Path 9" d="M668.605,126v3.751h1.331v1.392h-2.707v-.976a3.53,3.53,0,0,1-2.525,1.112,2.733,2.733,0,0,1-2.318-1.252,2.388,2.388,0,0,1,.038-2.6,2.643,2.643,0,0,1,1.092-.9,3.275,3.275,0,0,1,1.383-.318,3.8,3.8,0,0,1,2.17.68v-.855a1.857,1.857,0,0,0-.393-1.331,1.755,1.755,0,0,0-1.292-.4,2.228,2.228,0,0,0-1.062.23,1.85,1.85,0,0,0-.707.7l-1.5-.371a3.346,3.346,0,0,1,1.369-1.41,4.26,4.26,0,0,1,2.049-.465,3.219,3.219,0,0,1,2.332.726A3.111,3.111,0,0,1,668.605,126Zm-3.691,4.076a3.082,3.082,0,0,0,2.154-.96v-.93a3.319,3.319,0,0,0-2.042-.794,1.583,1.583,0,0,0-1.07.389,1.306,1.306,0,0,0-.057,1.92A1.412,1.412,0,0,0,664.915,130.074Z" transform="translate(-629.18 -119.746)"/>
      <path id="Path_10" data-name="Path 10" d="M755.615,126v3.751h1.331v1.392h-2.707v-.976a3.531,3.531,0,0,1-2.525,1.112,2.733,2.733,0,0,1-2.318-1.252,2.388,2.388,0,0,1,.038-2.6,2.643,2.643,0,0,1,1.092-.9,3.275,3.275,0,0,1,1.383-.318,3.8,3.8,0,0,1,2.17.68v-.855a1.857,1.857,0,0,0-.393-1.331,1.756,1.756,0,0,0-1.293-.4,2.227,2.227,0,0,0-1.062.23,1.85,1.85,0,0,0-.707.7l-1.5-.371a3.345,3.345,0,0,1,1.369-1.41,4.26,4.26,0,0,1,2.049-.465,3.219,3.219,0,0,1,2.332.726A3.111,3.111,0,0,1,755.615,126Zm-3.69,4.076a3.082,3.082,0,0,0,2.155-.96v-.93a3.318,3.318,0,0,0-2.042-.794,1.582,1.582,0,0,0-1.069.389,1.306,1.306,0,0,0-.057,1.92A1.409,1.409,0,0,0,751.926,130.074Z" transform="translate(-707.208 -119.746)"/>
      <path id="Path_11" data-name="Path 11" d="M837.153,96.4H835.9V95.1h4.4v1.3h-1.225L836.1,98.864l2.8,2.79H840.3v1.392h-2.065l-3.978-4.008v2.616H835.6v1.392H831.27v-1.392h1.422V93.027H831.27V91.65h2.987v7.183Z" transform="translate(-780.958 -91.65)"/>
    </g>
    <g id="Group_4" data-name="Group 4" transform="translate(67.692 90.85)">
      <path id="Path_12" data-name="Path 12" class="cls-3" d="M331.43,243.846l3.339-.324a4.075,4.075,0,0,0,1.223,2.469,3.7,3.7,0,0,0,2.487.789,3.821,3.821,0,0,0,2.5-.7,2.086,2.086,0,0,0,.84-1.64,1.545,1.545,0,0,0-.354-1.026,2.826,2.826,0,0,0-1.235-.736q-.6-.209-2.748-.742a9.325,9.325,0,0,1-3.872-1.681,4.421,4.421,0,0,1-1.565-3.42,4.375,4.375,0,0,1,.736-2.429,4.607,4.607,0,0,1,2.122-1.722,8.5,8.5,0,0,1,3.345-.592,7.173,7.173,0,0,1,4.817,1.4,4.951,4.951,0,0,1,1.7,3.744l-3.432.151a2.914,2.914,0,0,0-.945-1.884,3.458,3.458,0,0,0-2.174-.574,3.922,3.922,0,0,0-2.342.614,1.238,1.238,0,0,0-.545,1.055,1.308,1.308,0,0,0,.51,1.032,9.024,9.024,0,0,0,3.154,1.137,16.654,16.654,0,0,1,3.7,1.223,4.775,4.775,0,0,1,1.878,1.727,5.35,5.35,0,0,1-.133,5.443,4.855,4.855,0,0,1-2.3,1.9,9.639,9.639,0,0,1-3.7.62,7.362,7.362,0,0,1-4.95-1.49A6.493,6.493,0,0,1,331.43,243.846Z" transform="translate(-331.43 -232.09)"/>
      <path id="Path_13" data-name="Path 13" class="cls-3" d="M493.585,251.887h-3.733l-1.485-3.861h-6.794l-1.4,3.861h-3.64l6.621-17h3.629Zm-6.319-6.724-2.342-6.307-2.295,6.307Z" transform="translate(-461.55 -234.601)"/>
      <path id="Path_14" data-name="Path 14" class="cls-3" d="M659.59,251.887v-17h11.652v2.875h-8.22v4.023h7.1v2.875h-7.1v7.223Z" transform="translate(-625.712 -234.601)"/>
      <path id="Path_15" data-name="Path 15" class="cls-3" d="M799.85,251.887v-17h12.6v2.875h-9.171v3.768h8.534V244.4h-8.534v4.626h9.5v2.864Z" transform="translate(-751.492 -234.601)"/>
    </g>
    <ellipse id="Ellipse_1" data-name="Ellipse 1" class="cls-1" cx="2.865" cy="3.213" rx="2.865" ry="3.213" transform="translate(47.372 91.135)"/>
  </g>
</svg>
