<svg xmlns="http://www.w3.org/2000/svg" width="35.994" height="50" viewBox="0 0 35.994 50">
  <g id="noun_Worker_1698981" transform="translate(-21.269 -10.092)">
    <path id="Path_56" data-name="Path 56" d="M33.753,38.693c-6.884,0-12.484,6.192-12.484,13.8v6.971a.625.625,0,0,0,.625.625H56.638a.625.625,0,0,0,.625-.625V52.5c0-7.614-5.6-13.807-12.488-13.807h-.213v-4.5a10.021,10.021,0,0,0,4.8-8.362,1.882,1.882,0,0,0,1.4-1.814V22.588a1.878,1.878,0,0,0-1.016-1.662,10.261,10.261,0,0,0-7.531-9.616,1.4,1.4,0,0,0-1.381-1.219h-3a1.4,1.4,0,0,0-1.386,1.274,10.21,10.21,0,0,0-7.526,9.559,1.879,1.879,0,0,0-1.016,1.662v1.427a1.882,1.882,0,0,0,1.4,1.814,10.016,10.016,0,0,0,4.7,8.294v4.569h-.27ZM51.16,58.842H39.955V48.36a1.981,1.981,0,0,1,1.054-1.8c2.333-1.131,3.783-4.3,3.806-6.614a10.13,10.13,0,0,1,2.247.261c-.576,5.169,1.135,7.486,2.708,8.922a4.792,4.792,0,0,1,1.39,3.386v6.328ZM43.553,40.268a6.659,6.659,0,0,1-3.089,5.167,3.034,3.034,0,0,0-1.132.973,3.008,3.008,0,0,0-1.124-.972,6.656,6.656,0,0,1-3.062-5.1,8.626,8.626,0,0,0,8.408-.066Zm-9.676-.324c.023,2.316,1.463,5.484,3.782,6.616a1.983,1.983,0,0,1,1.046,1.8V58.842H27.745V52.514a4.792,4.792,0,0,1,1.389-3.386c1.58-1.442,3.3-3.771,2.7-8.988a10.08,10.08,0,0,1,1.917-.2h.124ZM22.519,52.5c0-5.7,3.424-10.521,8.093-12.044.478,4.534-.978,6.527-2.321,7.753a6.109,6.109,0,0,0-1.8,4.309v6.328H22.518V52.5Zm33.494,0v6.341h-3.6V52.514a6.109,6.109,0,0,0-1.8-4.309c-1.331-1.215-2.772-3.183-2.333-7.628C52.764,42.228,56.013,46.944,56.013,52.5ZM48.493,20.7H42.24V12.61A9.027,9.027,0,0,1,48.493,20.7ZM37.846,11.342h2.995a.154.154,0,0,1,.149.157v9.2H37.7V11.5A.154.154,0,0,1,37.846,11.342Zm-1.4,1.323V20.7H30.194A8.971,8.971,0,0,1,36.447,12.665Zm-7.278,9.924a.635.635,0,0,1,.634-.634H48.885a.635.635,0,0,1,.634.634v1.427a.635.635,0,0,1-.634.634H29.8a.635.635,0,0,1-.634-.634V22.588ZM30.576,25.9H48.112a8.77,8.77,0,0,1-4.419,7.35l0,0a8.762,8.762,0,0,1-1.591.714,11.024,11.024,0,0,1-5.5,0A8.774,8.774,0,0,1,30.576,25.9Zm5.667,9.267a12.089,12.089,0,0,0,3.1.4,11.3,11.3,0,0,0,3.134-.409c.284-.094.559-.2.83-.318v4.127l-.189.114a7.426,7.426,0,0,1-7.695-.019l-.152-.092V34.786C35.589,34.925,35.91,35.056,36.243,35.166Z" fill="#fc8c00"/>
  </g>
</svg>
