<svg xmlns="http://www.w3.org/2000/svg" viewBox="0 0 91 33.607">
  <defs>
    <style>
      .cls-1 {
        fill: #3d3c3d;
      }

      .cls-2 {
        fill: #fff;
      }

      .cls-3 {
        fill: #ef7d01;
      }
    </style>
  </defs>
  <g id="inbraaksafe-logo-inbraakbeveiliging" transform="translate(-37.33 -74.59)">
    <path id="Path_3" data-name="Path 3" class="cls-1" d="M37.33,107.9H62.935V83.006l-12.8-8.416-12.8,8.416Z" transform="translate(0)"/>
    <path id="Path_4" data-name="Path 4" class="cls-2" d="M69.338,209.914a1.49,1.49,0,0,1-.022-1.721c1.271-1.832,4.648-5.953,9.288-5.953,4.359,0,7.722,3.354,9.217,5.161a2.053,2.053,0,0,1,.186,2.363c-1.236,2.061-4.2,5.969-8.926,5.969C74.107,215.733,70.644,211.719,69.338,209.914Z" transform="translate(-28.472 -114.565)"/>
    <g id="Group_3" data-name="Group 3" transform="translate(68.757 76.339)">
      <path id="Path_5" data-name="Path 5" class="cls-3" d="M346.856,93.062v8.492h1.231v1.412H343.92v-1.412h1.224V93.062H343.92V91.65h4.167v1.412Z" transform="translate(-343.92 -91.65)"/>
      <path id="Path_6" data-name="Path 6" d="M400.929,126.709v3.927h1.321v1.382h-2.875v-5.211a2,2,0,0,0-.214-1.066.779.779,0,0,0-.7-.323,3.926,3.926,0,0,0-2.328,1.021v4.2h1.359v1.382h-4.28v-1.382H394.6v-5.12H393.21v-1.389h2.92v.953a4.706,4.706,0,0,1,2.726-1.059,1.856,1.856,0,0,1,1.565.653A3.318,3.318,0,0,1,400.929,126.709Z" transform="translate(-388.158 -120.702)"/>
      <path id="Path_7" data-name="Path 7" d="M492.9,94.864a3.62,3.62,0,0,1,1.967.551,3.827,3.827,0,0,1,1.37,1.49,4.3,4.3,0,0,1,.492,2.028,4.413,4.413,0,0,1-.5,2.08,3.961,3.961,0,0,1-1.378,1.52,3.547,3.547,0,0,1-1.967.567,3.925,3.925,0,0,1-1.64-.353,2.975,2.975,0,0,1-1.22-.969v1.186H487.12v-1.382h1.4V93.016h-1.4V91.65h2.906V96.2A3.705,3.705,0,0,1,492.9,94.864Zm-.323,6.855a2.26,2.26,0,0,0,1.314-.4,2.661,2.661,0,0,0,.894-1.044A3.092,3.092,0,0,0,495.1,98.9a2.746,2.746,0,0,0-.323-1.321,2.477,2.477,0,0,0-.894-.953,2.409,2.409,0,0,0-1.292-.353,2.334,2.334,0,0,0-1.292.368,2.541,2.541,0,0,0-.894,1,3.036,3.036,0,0,0-.323,1.4,2.806,2.806,0,0,0,.33,1.351,2.518,2.518,0,0,0,.9.969A2.363,2.363,0,0,0,492.577,101.718Z" transform="translate(-472.441 -91.65)"/>
      <path id="Path_8" data-name="Path 8" d="M592.993,128.857v1.787h1.719v1.382H589.87v-1.382h1.584v-5.12H589.87v-1.389h2.816v1.787a3.125,3.125,0,0,1,1.175-1.475,3.97,3.97,0,0,1,2.008-.416h.353V125.6h-.338a4.112,4.112,0,0,0-1.877.33,1.62,1.62,0,0,0-.815,1A7.17,7.17,0,0,0,592.993,128.857Z" transform="translate(-564.659 -120.711)"/>
      <path id="Path_9" data-name="Path 9" d="M668.559,125.977V129.7h1.321v1.382h-2.688v-.969a3.506,3.506,0,0,1-2.507,1.1,2.714,2.714,0,0,1-2.3-1.243,2.372,2.372,0,0,1,.038-2.583,2.624,2.624,0,0,1,1.084-.9,3.252,3.252,0,0,1,1.374-.316,3.773,3.773,0,0,1,2.155.676v-.849a1.844,1.844,0,0,0-.391-1.321,1.743,1.743,0,0,0-1.283-.4,2.212,2.212,0,0,0-1.055.229,1.837,1.837,0,0,0-.7.694l-1.486-.368a3.322,3.322,0,0,1,1.359-1.4,4.23,4.23,0,0,1,2.035-.461,3.2,3.2,0,0,1,2.316.721A3.089,3.089,0,0,1,668.559,125.977Zm-3.665,4.047a3.06,3.06,0,0,0,2.139-.953v-.924a3.3,3.3,0,0,0-2.028-.788,1.572,1.572,0,0,0-1.062.386,1.3,1.3,0,0,0-.056,1.907A1.4,1.4,0,0,0,664.894,130.024Z" transform="translate(-629.413 -119.768)"/>
      <path id="Path_10" data-name="Path 10" d="M755.569,125.977V129.7h1.321v1.382H754.2v-.969a3.506,3.506,0,0,1-2.507,1.1,2.714,2.714,0,0,1-2.3-1.243,2.371,2.371,0,0,1,.038-2.583,2.624,2.624,0,0,1,1.084-.9,3.252,3.252,0,0,1,1.374-.316,3.773,3.773,0,0,1,2.155.676v-.849a1.844,1.844,0,0,0-.391-1.321,1.743,1.743,0,0,0-1.283-.4,2.212,2.212,0,0,0-1.055.229,1.837,1.837,0,0,0-.7.694l-1.486-.368a3.321,3.321,0,0,1,1.359-1.4,4.23,4.23,0,0,1,2.035-.461,3.2,3.2,0,0,1,2.316.721A3.089,3.089,0,0,1,755.569,125.977Zm-3.664,4.047a3.06,3.06,0,0,0,2.139-.953v-.924a3.3,3.3,0,0,0-2.028-.788,1.57,1.57,0,0,0-1.062.386,1.3,1.3,0,0,0-.056,1.907A1.4,1.4,0,0,0,751.905,130.024Z" transform="translate(-707.504 -119.768)"/>
      <path id="Path_11" data-name="Path 11" d="M837.112,96.365h-1.246V95.074h4.37v1.292h-1.217l-2.95,2.448,2.785,2.771h1.382v1.382h-2.05l-3.95-3.979v2.6h1.337v1.382h-4.3v-1.382h1.411V93.017H831.27V91.65h2.965v7.132Z" transform="translate(-781.313 -91.65)"/>
    </g>
    <g id="Group_4" data-name="Group 4" transform="translate(67.477 90.735)">
      <path id="Path_12" data-name="Path 12" class="cls-3" d="M331.43,243.762l3.315-.322a4.046,4.046,0,0,0,1.215,2.452,3.672,3.672,0,0,0,2.469.783,3.794,3.794,0,0,0,2.481-.7,2.072,2.072,0,0,0,.834-1.629,1.534,1.534,0,0,0-.352-1.019,2.806,2.806,0,0,0-1.226-.731q-.6-.208-2.729-.737a9.259,9.259,0,0,1-3.845-1.669,4.39,4.39,0,0,1-1.554-3.4,4.344,4.344,0,0,1,.731-2.412,4.574,4.574,0,0,1,2.107-1.71,8.443,8.443,0,0,1,3.321-.587,7.123,7.123,0,0,1,4.783,1.393,4.916,4.916,0,0,1,1.686,3.718l-3.407.15a2.894,2.894,0,0,0-.938-1.871,3.433,3.433,0,0,0-2.159-.57,3.894,3.894,0,0,0-2.326.61,1.23,1.23,0,0,0-.541,1.048,1.3,1.3,0,0,0,.506,1.025,8.96,8.96,0,0,0,3.132,1.129,16.535,16.535,0,0,1,3.678,1.215,4.742,4.742,0,0,1,1.865,1.715,5.312,5.312,0,0,1-.132,5.4,4.82,4.82,0,0,1-2.28,1.882,9.571,9.571,0,0,1-3.673.616,7.31,7.31,0,0,1-4.915-1.479A6.447,6.447,0,0,1,331.43,243.762Z" transform="translate(-331.43 -232.09)"/>
      <path id="Path_13" data-name="Path 13" class="cls-3" d="M493.464,251.767h-3.707l-1.474-3.834h-6.746l-1.393,3.834H476.53L483.1,234.89h3.6Zm-6.274-6.676-2.326-6.262-2.279,6.262Z" transform="translate(-461.656 -234.603)"/>
      <path id="Path_14" data-name="Path 14" class="cls-3" d="M659.59,251.767V234.89h11.57v2.855H663v3.995h7.045v2.855H663v7.172Z" transform="translate(-625.952 -234.603)"/>
      <path id="Path_15" data-name="Path 15" class="cls-3" d="M799.85,251.767V234.89h12.514v2.855h-9.106v3.742h8.473v2.844h-8.473v4.593h9.429v2.843Z" transform="translate(-751.834 -234.603)"/>
    </g>
    <ellipse id="Ellipse_1" data-name="Ellipse 1" class="cls-1" cx="2.845" cy="3.19" rx="2.845" ry="3.19" transform="translate(47.301 91.018)"/>
  </g>
</svg>
