<svg xmlns="http://www.w3.org/2000/svg" viewBox="0 0 45.369 43.146">
  <defs>
    <style>
      .cls-1 {
        fill: #fc8c00;
      }
    </style>
  </defs>
  <g id="Group_587" data-name="Group 587" transform="translate(-358 -3947.591)">
    <g id="Group_296" data-name="Group 296" transform="translate(0.226 871)">
      <path id="Path_60" data-name="Path 60" class="cls-1" d="M46.369,18.041a.709.709,0,0,0-.313-.588l-5.128-3.445V6.431a.709.709,0,0,0-.709-.709H33.374a.709.709,0,0,0-.709.709V8.456L24.081,2.689a.708.708,0,0,0-.793,0L1.313,17.571A.71.71,0,0,0,1,18.158v4.33a.719.719,0,0,0,.709.709H3.833V44.3H1.851a.709.709,0,1,0,0,1.418H45.518a.709.709,0,1,0,0-1.418H43.537V23.2H45.66a.709.709,0,0,0,.709-.709c0-.017-.009-.031-.01-.047a.576.576,0,0,0,.01-.07ZM4.02,21.779,23.686,8.462,43.509,21.779ZM34.083,7.14h5.427v5.915L34.083,9.409ZM2.418,18.535l21.268-14.4L44.951,18.419v2.622L24.08,7.018a.708.708,0,0,0-.793,0L2.418,21.152Zm17.427,25.76V31.453h7.679V44.295Zm22.274,0H28.942V30.744a.709.709,0,0,0-.709-.709h-9.1a.709.709,0,0,0-.709.709V44.295H5.251V23.2H42.119Z" transform="translate(356.774 3074.022)"/>
      <path id="Path_61" data-name="Path 61" class="cls-1" d="M31.156,14.937a4.491,4.491,0,1,0,4.492,4.491A4.5,4.5,0,0,0,31.156,14.937Zm0,7.565a3.074,3.074,0,1,1,3.074-3.074A3.077,3.077,0,0,1,31.156,22.5Z" transform="translate(349.303 3070.422)"/>
      <path id="Path_62" data-name="Path 62" class="cls-1" d="M11.073,47.258h6.935a.709.709,0,1,0,0-1.418H18V38.766a.709.709,0,0,0-.709-.709H11.793a.709.709,0,0,0-.709.709V45.84h-.012a.709.709,0,1,0,0,1.418Zm1.43-7.783h4.076V45.84H12.5V39.475Z" transform="translate(354.049 3063.691)"/>
      <path id="Path_63" data-name="Path 63" class="cls-1" d="M44.264,47.258H51.2a.709.709,0,1,0,0-1.418h-.012V38.766a.709.709,0,0,0-.709-.709H44.984a.709.709,0,0,0-.709.709V45.84h-.012a.709.709,0,1,0,0,1.418Zm1.429-7.783h4.076V45.84H45.693Z" transform="translate(344.387 3063.691)"/>
      <path id="Path_64" data-name="Path 64" class="cls-1" d="M29.733,50.363a.709.709,0,0,0-.709.709v2.083a.709.709,0,0,0,1.418,0V51.072A.708.708,0,0,0,29.733,50.363Z" transform="translate(348.616 3060.108)"/>
    </g>
  </g>
</svg>
