<svg xmlns="http://www.w3.org/2000/svg" viewBox="0 0 34.372 34.372">
  <defs>
    <style>
      .cls-1 {
        fill: #fc8c00;
      }

      .cls-2, .cls-3 {
        stroke: none;
      }

      .cls-3 {
        fill: #fff;
      }
    </style>
  </defs>
  <g id="Group_298" data-name="Group 298" transform="translate(-1122.598 -3081)">
    <g id="Path_67" data-name="Path 67" class="cls-1" transform="translate(1092.598 3051)">
      <path class="cls-2" d="M 47.18618774414062 64.17237854003906 C 37.81996917724609 64.17237854003906 30.19999694824219 56.55240631103516 30.19999694824219 47.18618774414062 C 30.19999694824219 37.81996917724609 37.81996917724609 30.19999694824219 47.18618774414062 30.19999694824219 C 56.55240631103516 30.19999694824219 64.17237854003906 37.81996917724609 64.17237854003906 47.18618774414062 C 64.17237854003906 56.55240631103516 56.55240631103516 64.17237854003906 47.18618774414062 64.17237854003906 Z M 47.18618774414062 32.37792587280273 C 39.02088928222656 32.37792587280273 32.37792587280273 39.02088928222656 32.37792587280273 47.18618774414062 C 32.37792587280273 55.35149765014648 39.02088928222656 61.99445724487305 47.18618774414062 61.99445724487305 C 55.35149765014648 61.99445724487305 61.99445724487305 55.35149765014648 61.99445724487305 47.18618774414062 C 61.99445724487305 39.02088928222656 55.35149765014648 32.37792587280273 47.18618774414062 32.37792587280273 Z M 45.8972282409668 53.86065673828125 C 45.6336669921875 53.86065673828125 45.37885665893555 53.76495742797852 45.17973709106445 53.59117889404297 L 38.30545806884766 47.57617950439453 C 38.08629608154297 47.38476943969727 37.95502853393555 47.11955642700195 37.93570709228516 46.82929611206055 C 37.91638946533203 46.53896713256836 38.01134872436523 46.25838851928711 38.20310592651367 46.03923797607422 C 38.40971755981445 45.80266952514648 38.70831680297852 45.66706848144531 39.02245712280273 45.66706848144531 C 39.28602600097656 45.66706848144531 39.54091644287109 45.7629280090332 39.74016952514648 45.93699645996094 L 45.62802886962891 51.08930587768555 L 45.78104782104492 51.22320938110352 L 45.91240692138672 51.06799697875977 L 54.51924896240234 40.89806747436523 C 54.72667694091797 40.65263748168945 55.02974700927734 40.51192855834961 55.3508186340332 40.51192855834961 C 55.60721588134766 40.51192855834961 55.85666656494141 40.60340881347656 56.05320739746094 40.76951599121094 C 56.51144790649414 41.15682601928711 56.56867599487305 41.84529876708984 56.1807861328125 42.30424880981445 L 46.72845840454102 53.47517776489258 C 46.52030944824219 53.72002792358398 46.21721649169922 53.86065673828125 45.8972282409668 53.86065673828125 Z"/>
      <path class="cls-3" d="M 47.18618774414062 30.39999771118164 C 37.93024826049805 30.39999771118164 30.39999771118164 37.93024826049805 30.39999771118164 47.18618774414062 C 30.39999771118164 56.4421272277832 37.93024826049805 63.97237777709961 47.18618774414062 63.97237777709961 C 56.4421272277832 63.97237777709961 63.97237777709961 56.4421272277832 63.97237777709961 47.18618774414062 C 63.97237777709961 37.93024826049805 56.4421272277832 30.39999771118164 47.18618774414062 30.39999771118164 M 47.18618774414062 62.1944465637207 C 38.91060638427734 62.1944465637207 32.17792892456055 55.46176910400391 32.17792892456055 47.18618774414062 C 32.17792892456055 38.91060638427734 38.91060638427734 32.17792892456055 47.18618774414062 32.17792892456055 C 55.46176910400391 32.17792892456055 62.1944465637207 38.91060638427734 62.1944465637207 47.18618774414062 C 62.1944465637207 55.46176910400391 55.46176910400391 62.1944465637207 47.18618774414062 62.1944465637207 M 55.3508186340332 40.71192932128906 C 55.08873748779297 40.71192932128906 54.84134674072266 40.82678604125977 54.67190933227539 41.02726745605469 L 46.06506729125977 51.19719696044922 L 45.8023567199707 51.50761795043945 L 45.4963264465332 51.23981857299805 L 39.60857772827148 46.08761596679688 C 39.44576644897461 45.94537734985352 39.23761749267578 45.86705780029297 39.02248764038086 45.86706924438477 C 38.76605606079102 45.86708831787109 38.52234649658203 45.97774887084961 38.35361862182617 46.17093658447266 C 38.19703674316406 46.34989929199219 38.11948776245117 46.57898712158203 38.13526916503906 46.81600952148438 C 38.15102767944336 47.05289840698242 38.25814819335938 47.26931762695312 38.43715667724609 47.42566680908203 L 45.31123733520508 53.44049835205078 C 45.47391891479492 53.58246612548828 45.68202590942383 53.6606559753418 45.8972282409668 53.6606559753418 C 46.158447265625 53.6606559753418 46.40599822998047 53.54570770263672 46.57578659057617 53.34598922729492 L 56.02803802490234 42.17514801025391 C 56.34474945068359 41.8004264831543 56.29811859130859 41.23838806152344 55.92410659790039 40.92226791381836 C 55.76361846923828 40.78662872314453 55.56001663208008 40.71192932128906 55.3508186340332 40.71192932128906 M 47.18618774414062 30 C 56.66178894042969 30 64.37237548828125 37.7097282409668 64.37237548828125 47.18618774414062 C 64.37237548828125 56.66178894042969 56.66178894042969 64.37237548828125 47.18618774414062 64.37237548828125 C 37.7097282409668 64.37237548828125 30 56.66178894042969 30 47.18618774414062 C 30 37.7097282409668 37.7097282409668 30 47.18618774414062 30 Z M 47.18618774414062 61.79444885253906 C 55.24135589599609 61.79444885253906 61.79444885253906 55.24135589599609 61.79444885253906 47.18618774414062 C 61.79444885253906 39.13101959228516 55.24135589599609 32.57792663574219 47.18618774414062 32.57792663574219 C 39.13101959228516 32.57792663574219 32.57792663574219 39.13101959228516 32.57792663574219 47.18618774414062 C 32.57792663574219 55.24135589599609 39.13101959228516 61.79444885253906 47.18618774414062 61.79444885253906 Z M 55.35082244873047 40.31192779541016 C 55.64463424682617 40.31192779541016 55.94004821777344 40.41201782226562 56.18230819702148 40.61676788330078 C 56.72623825073242 41.07649612426758 56.79326629638672 41.88940811157227 56.33353805541992 42.433349609375 L 46.88113784790039 53.60436630249023 C 46.64224624633789 53.88536834716797 46.28734588623047 54.0606575012207 45.8972282409668 54.0606575012207 C 45.58615875244141 54.0606575012207 45.28453826904297 53.94809722900391 45.0482292175293 53.74186706542969 L 38.17375946044922 47.7266960144043 C 37.63753890991211 47.25837707519531 37.58340835571289 46.44374847412109 38.05258941650391 45.90753936767578 C 38.30709838867188 45.61613082885742 38.66374588012695 45.46710205078125 39.02245330810547 45.46707153320312 C 39.32379150390625 45.46704483032227 39.62655258178711 45.57217407226562 39.87174606323242 45.786376953125 L 45.75973892211914 50.93879699707031 L 54.3665771484375 40.76886749267578 C 54.62155532836914 40.46717834472656 54.98493957519531 40.31192779541016 55.35082244873047 40.31192779541016 Z"/>
    </g>
  </g>
</svg>
