<svg xmlns="http://www.w3.org/2000/svg" width="24.262" height="50" viewBox="0 0 24.262 50">
  <g id="noun_jumper_cables_1764980" data-name="noun_jumper cables_1764980" transform="translate(-30.546 -10)">
    <path id="Path_55" data-name="Path 55" d="M40.2,15.867a.626.626,0,0,0,.366-.7L39.577,10.5a.625.625,0,0,0-.612-.5H33a.625.625,0,0,0-.625.625V36.168H31.171a.625.625,0,0,0-.625.625V54.9a5.11,5.11,0,0,0,5.1,5.1h.522a5.11,5.11,0,0,0,5.1-5.1v-18.1a.625.625,0,0,0-.625-.625h-1.08V33.337A2.329,2.329,0,0,1,41.9,31.01h1.669a2.329,2.329,0,0,1,2.327,2.327v2.831H44.7a.625.625,0,0,0-.625.625V54.9a5.11,5.11,0,0,0,5.1,5.1H49.7a5.11,5.11,0,0,0,5.1-5.1v-18.1a.625.625,0,0,0-.625-.625h-1.1V10.625A.625.625,0,0,0,52.461,10H46.5a.625.625,0,0,0-.612.5L44.9,15.162a.626.626,0,0,0,.366.7,4.623,4.623,0,0,1,2.788,4.709,4.762,4.762,0,0,1-4.791,4.171H42.016A4.625,4.625,0,0,1,40.2,15.867ZM40.026,54.9a3.859,3.859,0,0,1-3.854,3.854H35.65A3.858,3.858,0,0,1,31.8,54.9V37.418h8.231Zm13.531,0A3.859,3.859,0,0,1,49.7,58.75h-.522A3.859,3.859,0,0,1,45.327,54.9V37.418h8.231V54.9ZM43.261,26a6.02,6.02,0,0,0,6.035-5.3,5.868,5.868,0,0,0-3.074-5.753l.783-3.691h4.83V36.168H47.143V33.337a3.581,3.581,0,0,0-3.577-3.577h-.408a1.882,1.882,0,0,1,0-3.764h.1Zm-7.12-5.875a5.883,5.883,0,0,0,4.641,5.742,3.071,3.071,0,0,0,.03,4.067,3.582,3.582,0,0,0-2.49,3.407v2.831H33.628V11.25h4.83l.783,3.691A5.869,5.869,0,0,0,36.14,20.121Z" transform="translate(0)" fill="#fc8c00"/>
  </g>
</svg>
