<svg xmlns="http://www.w3.org/2000/svg" width="50.079" height="50.079" viewBox="0 0 50.079 50.079">
  <g id="Group_602" data-name="Group 602" transform="translate(-1198 -1224)">
    <g id="noun_mechanical_1722223" transform="translate(1198 1224)">
      <path id="Path_41" data-name="Path 41" d="M50.4,17.3V10.626a.626.626,0,1,0-1.252,0V17.3a.626.626,0,1,0,1.252,0Z" transform="translate(-24.643 -10)" fill="#fc8c00"/>
      <path id="Path_42" data-name="Path 42" d="M33.6,22.183a.626.626,0,0,0,.542-.939L30.8,15.462a.626.626,0,0,0-1.084.626l3.338,5.783A.626.626,0,0,0,33.6,22.183Z" transform="translate(-17.342 -11.925)" fill="#fc8c00"/>
      <path id="Path_43" data-name="Path 43" d="M22.022,32.791,16.24,29.452a.626.626,0,0,0-.626,1.084L21.4,33.875a.626.626,0,0,0,.626-1.084Z" transform="translate(-11.982 -17.244)" fill="#fc8c00"/>
      <path id="Path_44" data-name="Path 44" d="M10.626,50.1H17.3a.626.626,0,0,0,0-1.252H10.626a.626.626,0,1,0,0,1.252Z" transform="translate(-10 -24.53)" fill="#fc8c00"/>
      <path id="Path_45" data-name="Path 45" d="M21.245,63.119l-5.782,3.339a.626.626,0,0,0,.626,1.084L21.871,64.2a.626.626,0,1,0-.626-1.084Z" transform="translate(-11.926 -29.836)" fill="#fc8c00"/>
      <path id="Path_46" data-name="Path 46" d="M32.791,73.774l-3.339,5.783a.626.626,0,0,0,1.084.626L33.875,74.4a.626.626,0,0,0-1.084-.626Z" transform="translate(-17.244 -33.735)" fill="#fc8c00"/>
      <path id="Path_47" data-name="Path 47" d="M48.849,77.959v6.677a.626.626,0,1,0,1.252,0V77.959a.626.626,0,1,0-1.252,0Z" transform="translate(-24.53 -35.184)" fill="#fc8c00"/>
      <path id="Path_48" data-name="Path 48" d="M63.348,73.7a.626.626,0,0,0-.229.855l3.338,5.783a.626.626,0,1,0,1.084-.626L64.2,73.926A.626.626,0,0,0,63.348,73.7Z" transform="translate(-29.836 -33.792)" fill="#fc8c00"/>
      <path id="Path_49" data-name="Path 49" d="M73.775,64.466,79.557,67.8a.626.626,0,1,0,.626-1.084L74.4,63.381a.626.626,0,0,0-.626,1.084Z" transform="translate(-33.735 -29.934)" fill="#fc8c00"/>
      <path id="Path_50" data-name="Path 50" d="M85.262,49.778a.626.626,0,0,0-.626-.626H77.959a.626.626,0,1,0,0,1.252h6.677A.626.626,0,0,0,85.262,49.778Z" transform="translate(-35.183 -24.643)" fill="#fc8c00"/>
      <path id="Path_51" data-name="Path 51" d="M74.24,34.222a.623.623,0,0,0,.312-.084L80.335,30.8a.626.626,0,0,0-.626-1.084l-5.782,3.339a.626.626,0,0,0,.314,1.168Z" transform="translate(-33.792 -17.342)" fill="#fc8c00"/>
      <path id="Path_52" data-name="Path 52" d="M63.923,22.335a.626.626,0,0,0,.543-.313L67.8,16.24a.626.626,0,1,0-1.084-.626L63.381,21.4a.626.626,0,0,0,.542.939Z" transform="translate(-29.934 -11.982)" fill="#fc8c00"/>
      <path id="Path_53" data-name="Path 53" d="M45.75,38.637a7.113,7.113,0,1,0,7.113,7.112A7.12,7.12,0,0,0,45.75,38.637Zm0,12.973a5.861,5.861,0,1,1,5.861-5.861A5.867,5.867,0,0,1,45.75,51.61Z" transform="translate(-20.711 -20.71)" fill="#fc8c00"/>
      <path id="Path_54" data-name="Path 54" d="M54.945,39.788a.626.626,0,0,0,.547-.754,13.859,13.859,0,0,0-1.921-4.63.626.626,0,0,0-.919-.147,2.2,2.2,0,0,1-3.1-3.1.626.626,0,0,0-.147-.919,13.867,13.867,0,0,0-4.631-1.92.626.626,0,0,0-.754.547,2.2,2.2,0,0,1-4.384,0,.626.626,0,0,0-.754-.547,13.867,13.867,0,0,0-4.631,1.92.626.626,0,0,0-.147.919,2.2,2.2,0,0,1-3.1,3.1.626.626,0,0,0-.919.147,13.859,13.859,0,0,0-1.921,4.63.626.626,0,0,0,.547.754,2.2,2.2,0,0,1,0,4.384.626.626,0,0,0-.547.754,13.858,13.858,0,0,0,1.921,4.631.627.627,0,0,0,.919.147,2.2,2.2,0,0,1,3.1,3.1.626.626,0,0,0,.147.919,13.859,13.859,0,0,0,4.631,1.92.626.626,0,0,0,.754-.547,2.2,2.2,0,0,1,4.384,0,.626.626,0,0,0,.622.561.615.615,0,0,0,.131-.014,13.859,13.859,0,0,0,4.631-1.92.626.626,0,0,0,.147-.919,2.2,2.2,0,0,1,3.1-3.1.627.627,0,0,0,.919-.147,13.858,13.858,0,0,0,1.921-4.631.626.626,0,0,0-.547-.754,2.2,2.2,0,0,1,0-4.384Zm-.824,5.484a12.565,12.565,0,0,1-1.275,3.071A3.459,3.459,0,0,0,48.192,53a12.584,12.584,0,0,1-3.071,1.274,3.458,3.458,0,0,0-6.584,0A12.584,12.584,0,0,1,35.465,53a3.459,3.459,0,0,0-4.655-4.655,12.565,12.565,0,0,1-1.275-3.071,3.458,3.458,0,0,0,0-6.584,12.575,12.575,0,0,1,1.275-3.071,3.458,3.458,0,0,0,4.655-4.655,12.6,12.6,0,0,1,3.071-1.274,3.458,3.458,0,0,0,6.584,0,12.6,12.6,0,0,1,3.071,1.274,3.458,3.458,0,0,0,4.655,4.655,12.571,12.571,0,0,1,1.275,3.071,3.458,3.458,0,0,0,0,6.584Z" transform="translate(-16.789 -16.846)" fill="#fc8c00"/>
    </g>
  </g>
</svg>
