<svg xmlns="http://www.w3.org/2000/svg" width="11.96" height="11.96" viewBox="0 0 11.96 11.96">
  <g id="Group_588" data-name="Group 588" transform="translate(0 0)">
    <path id="Path_311" data-name="Path 311" d="M39.966,41.983a2.114,2.114,0,0,1,.473-1.04,4.943,4.943,0,0,1,.8-.8s.236-.236.614.047,2.08,1.749,2.08,1.749.473.567.236.993a12.244,12.244,0,0,1-1.087,1.229s-.142.189.189.8a15.174,15.174,0,0,0,3.687,3.687c.614.331.8.189.8.189a10.079,10.079,0,0,1,1.276-1.04c.425-.284.945.236.945.236s1.465,1.654,1.749,2.08c.284.378.047.567.047.567a3.731,3.731,0,0,1-.756.8,2.3,2.3,0,0,1-1.04.473C46.063,52.665,39.257,45.858,39.966,41.983Z" transform="translate(-39.914 -40.047)" fill="#fff" fill-rule="evenodd"/>
  </g>
</svg>
