<svg id="noun_window_727525" xmlns="http://www.w3.org/2000/svg" width="39.216" height="50" viewBox="0 0 39.216 50">
  <path id="Path_36" data-name="Path 36" d="M24.754,67.3H62.461a.713.713,0,0,0,.754-.754V18.054a.713.713,0,0,0-.754-.754H24.754a.712.712,0,0,0-.754.754V66.546A.811.811,0,0,0,24.754,67.3Zm.754-48.492h36.2V65.792h-36.2Z" transform="translate(-24 -17.3)" fill="#fc8c00"/>
  <path id="Path_37" data-name="Path 37" d="M60.023,21.8H29.352a.711.711,0,0,0-.752.752V64.084a.711.711,0,0,0,.752.752H60.023a.711.711,0,0,0,.752-.752V22.552A.754.754,0,0,0,60.023,21.8Zm-.752,27.687H45.439V23.3H59.271ZM43.936,23.3V49.487H30.1V23.3ZM59.271,63.331H30.1V50.992H59.271Z" transform="translate(-25.08 -18.356)" fill="#fc8c00"/>
</svg>
